<?xml version="1.0" encoding="UTF-8" standalone="no"?>
<svg xmlns:dc="http://purl.org/dc/elements/1.1/" xmlns:cc="http://creativecommons.org/ns#" xmlns:rdf="http://www.w3.org/1999/02/22-rdf-syntax-ns#" xmlns:svg="http://www.w3.org/2000/svg" xmlns="http://www.w3.org/2000/svg" viewBox="0 0 599.99999 189.99999" height="190" width="600" xml:space="preserve" version="1.1" id="svg2"><metadata id="metadata8"><rdf:RDF><cc:Work rdf:about=""><dc:format>image/svg+xml</dc:format><dc:type rdf:resource="http://purl.org/dc/dcmitype/StillImage"/><dc:title/></cc:Work></rdf:RDF></metadata><defs id="defs6"><clipPath id="clipPath1514" clipPathUnits="userSpaceOnUse"><path id="path1516" d="m 32.6281,20.3328 32.875,0 0,35.394 -32.875,0 0,-35.394 z"/></clipPath></defs><g transform="matrix(1.25,0,0,-1.25,0,189.99995)" id="g10"><g transform="matrix(4.4535371,0,0,4.4535371,-143.71045,-93.653176)" id="g5194"><g transform="scale(1,-1)" style="font-variant:normal;font-weight:bold;font-size:18.79299927px;font-family:Times;-inkscape-font-specification:Times-Bold;writing-mode:lr-tb;fill:#000000;fill-opacity:1;fill-rule:nonzero;stroke:none" id="text1408"><path d="m 69.94502,-53.297556 11.314339,0 0.01835,3.7898 -0.5414,0 q -0.266112,-2.027956 -1.523261,-2.743705 -0.706572,-0.394579 -2.110541,-0.431285 l 0,9.892019 q 0,1.036918 0.357874,1.37644 0.367051,0.339522 1.514084,0.339522 l 0,0.477166 -6.698676,0 0,-0.477166 q 1.101152,0 1.459027,-0.339522 0.367051,-0.348698 0.367051,-1.37644 l 0,-9.892019 q -1.376441,0.03671 -2.110542,0.431285 -1.348912,0.734102 -1.523261,2.743705 l -0.5414,0 0.01835,-3.7898 z" id="path5100"/></g><g transform="scale(1,-1)" style="font-variant:normal;font-weight:bold;font-size:18.79299927px;font-family:Times;-inkscape-font-specification:Times-Bold;writing-mode:lr-tb;fill:#000000;fill-opacity:1;fill-rule:nonzero;stroke:none" id="text1412"><path d="m 88.935875,-40.854535 q 2.110542,0 2.899701,-2.505121 0.422109,-1.358088 0.422109,-3.54204 0,-3.00064 -0.899275,-4.523901 -0.890098,-1.52326 -2.422535,-1.52326 -2.128894,0 -2.918053,2.541826 -0.412932,1.348912 -0.412932,3.505335 0,2.193128 0.422108,3.54204 0.779983,2.505121 2.908877,2.505121 z m 0,-12.727485 q 2.844644,0 4.725779,1.835254 1.936193,1.881135 1.936193,4.84507 0,2.963935 -1.936193,4.84507 -1.890311,1.835254 -4.725779,1.835254 -3.009816,0 -4.909304,-2.009603 -1.77102,-1.890311 -1.77102,-4.569782 0,-2.954759 1.853607,-4.854246 1.871959,-1.927017 4.826717,-1.927017 z m -0.0092,0 0,0 z" id="path5097"/></g><g transform="scale(1,-1)" style="font-variant:normal;font-weight:bold;font-size:18.79299927px;font-family:Times;-inkscape-font-specification:Times-Bold;writing-mode:lr-tb;fill:#000000;fill-opacity:1;fill-rule:nonzero;stroke:none" id="text1416"><path d="m 96.56993,-41.074765 q 0.954332,-0.04588 1.30303,-0.357875 0.348698,-0.311993 0.348698,-1.358087 l 0,-8.304524 q 0,-1.091976 -0.412932,-1.422322 -0.275288,-0.22023 -1.238796,-0.302817 l 0,-0.477166 6.04716,0 q 1.88114,0 3.04652,0.39458 2.25736,0.798335 2.25736,2.872172 0,1.532437 -1.12868,2.413359 -0.86257,0.660691 -1.82607,0.844217 l 3.78062,5.349765 q 0.156,0.22023 0.33034,0.29364 0.17435,0.06423 0.43129,0.08259 l 0,0.449637 -3.84486,0 -3.89991,-5.872812 -0.49552,0 0,3.679684 q 0,0.991037 0.33035,1.339735 0.33034,0.339522 1.32138,0.376227 l 0,0.477166 -6.34998,0 0,-0.477166 z m 4.69825,-6.00128 q 1.84443,-0.02753 2.63359,-0.513871 0.79833,-0.495519 0.79833,-2.275715 0,-1.091976 -0.30281,-1.725138 -0.52305,-1.073624 -1.90867,-1.073624 -0.75245,0 -0.99103,0.192702 -0.22941,0.183525 -0.22941,0.61481 l 0,4.780836 z" id="path5094"/></g><g transform="scale(1,-1)" style="font-variant:normal;font-weight:bold;font-size:18.79299927px;font-family:Times;-inkscape-font-specification:Times-Bold;writing-mode:lr-tb;fill:#000000;fill-opacity:1;fill-rule:nonzero;stroke:none" id="text1420"><path d="m 117.10141,-53.536139 q 1.17456,0 2.37665,0.440461 1.20209,0.431285 1.33974,0.431285 0.35787,0 0.56892,-0.275288 0.22023,-0.275288 0.27529,-0.578105 l 0.52305,0 0,4.395433 -0.47717,0 q -0.67904,-1.431498 -1.38561,-2.257362 -1.32139,-1.523261 -2.99147,-1.523261 -1.89031,0 -2.68864,1.633376 -0.78916,1.6242 -0.78916,4.367904 0,2.018779 0.46799,3.321809 0.87174,2.440888 3.23922,2.440888 1.44985,0 2.69782,-0.807512 0.71575,-0.467989 1.68844,-1.495731 l 0.55975,0.458813 q -1.10115,1.22962 -1.93619,1.780196 -1.48656,0.981861 -3.30346,0.981861 -2.78041,0 -4.66155,-1.651728 -2.08301,-1.826078 -2.08301,-4.918481 0,-3.064874 1.99125,-4.964361 1.87196,-1.780197 4.58814,-1.780197 z m -0.0459,-0.04588 0,0 z" id="path5091"/></g><g transform="scale(1,-1)" style="font-variant:normal;font-weight:bold;font-size:18.79299927px;font-family:Times;-inkscape-font-specification:Times-Bold;writing-mode:lr-tb;fill:#000000;fill-opacity:1;fill-rule:nonzero;stroke:none" id="text1424"><path d="m 129.96143,-53.297556 0,0.477166 q -0.97268,0.05506 -1.24797,0.146821 -0.27529,0.09176 -0.27529,0.385403 0,0.128468 0.0459,0.284464 0.0551,0.146821 0.23858,0.5414 l 2.34913,4.514725 0.156,0 2.01878,-3.303457 q 0.1927,-0.302817 0.40375,-0.743278 0.32117,-0.669868 0.32117,-0.991037 0,-0.495519 -0.39458,-0.660691 -0.26611,-0.110116 -1.17456,-0.17435 l 0,-0.477166 4.12932,0 0,0.477166 q -0.44964,0.08259 -0.71575,0.192702 -0.33952,0.174349 -0.56893,0.532224 l -3.58792,5.845283 0,3.459454 q 0,1.073623 0.36705,1.385616 0.36705,0.302817 1.37644,0.330346 l 0,0.477166 -6.52433,0 0,-0.477166 q 1.0461,-0.02753 1.38562,-0.357875 0.3487,-0.330345 0.3487,-1.358087 l 0,-2.762057 -3.43193,-6.239863 q -0.33952,-0.61481 -0.83504,-0.86257 -0.33034,-0.155996 -0.66986,-0.165173 l 0,-0.477166 6.28574,0 z m 0.5047,-0.284464 0,0 z" id="path5088"/></g></g><g transform="matrix(4.4535371,0,0,4.4535371,-143.71045,-93.653176)" id="g5206"><g transform="scale(1,-1)" style="font-variant:normal;font-weight:normal;font-size:7.04699993px;font-family:Times;-inkscape-font-specification:Times-Roman;writing-mode:lr-tb;fill:#000000;fill-opacity:1;fill-rule:nonzero;stroke:none" id="text1428"><path d="m 96.595551,-35.086423 q 0,-0.646892 -0.557429,-0.887757 -0.299359,-0.130755 -0.757001,-0.130755 -0.216778,0 -0.268392,0.04473 -0.04817,0.04129 -0.04817,0.189251 l 0,1.83745 q 0.189251,0.0172 0.247746,0.02065 0.0585,0.0034 0.11355,0.0034 0.48517,0 0.763884,-0.137637 0.505815,-0.251187 0.505815,-0.939371 z m -2.935103,3.255109 q 0.402588,-0.03785 0.502374,-0.158283 0.09979,-0.123873 0.09979,-0.560869 l 0,-3.052094 q 0,-0.368179 -0.11355,-0.48517 -0.11011,-0.116991 -0.488611,-0.147959 l 0,-0.130755 1.858096,0 q 0.894639,0 1.369485,0.347532 0.474847,0.347533 0.474847,0.915285 0,0.719151 -0.526461,1.042598 -0.52646,0.323446 -1.317871,0.323446 -0.11355,0 -0.292478,-0.0034 -0.175487,-0.0069 -0.26151,-0.0069 l 0,1.280022 q 0,0.399146 0.120432,0.502374 0.123873,0.103227 0.547106,0.134196 l 0,0.127314 -1.971646,0 0,-0.127314 z" id="path5160"/></g><g transform="scale(1,-1)" style="font-variant:normal;font-weight:normal;font-size:7.04699993px;font-family:Times;-inkscape-font-specification:Times-Roman;writing-mode:lr-tb;fill:#000000;fill-opacity:1;fill-rule:nonzero;stroke:none" id="text1432"><path d="m 99.964526,-33.513923 -0.815498,-1.940678 -0.805175,1.940678 1.620673,0 z m -3.041772,1.809923 0,-0.127314 q 0.271833,-0.03097 0.406029,-0.206456 0.137636,-0.175486 0.467964,-0.953134 l 1.469272,-3.458122 0.137637,0 1.754864,3.994905 q 0.17549,0.399147 0.27872,0.495493 0.10667,0.0929 0.35441,0.127314 l 0,0.127314 -1.792715,0 0,-0.127314 q 0.309685,-0.02753 0.399145,-0.06538 0.0895,-0.04129 0.0895,-0.196132 0,-0.05161 -0.0344,-0.182369 -0.0344,-0.130755 -0.0964,-0.275273 l -0.29248,-0.677861 -1.84433,0 q -0.275273,0.691624 -0.330328,0.846466 -0.05161,0.1514 -0.05161,0.240864 0,0.178928 0.144519,0.247746 0.08946,0.04129 0.33721,0.06194 l 0,0.127314 -1.397013,0 z m 2.412084,-4.745026 0,0 z" id="path5157"/></g><g transform="scale(1,-1)" style="font-variant:normal;font-weight:normal;font-size:7.04699993px;font-family:Times;-inkscape-font-specification:Times-Roman;writing-mode:lr-tb;fill:#000000;fill-opacity:1;fill-rule:nonzero;stroke:none" id="text1436"><path d="m 103.30725,-34.116084 q 0.76045,-0.02753 1.08733,-0.158282 0.56087,-0.230542 0.56087,-0.867111 0,-0.612484 -0.50237,-0.836144 -0.26839,-0.120432 -0.71227,-0.120432 -0.29936,0 -0.36818,0.04473 -0.0654,0.04129 -0.0654,0.199573 l 0,1.737664 z m -1.32131,2.28477 q 0.40603,-0.03785 0.50582,-0.158283 0.0998,-0.120432 0.0998,-0.560869 l 0,-3.052094 q 0,-0.37162 -0.11355,-0.48517 -0.11011,-0.116991 -0.49205,-0.147959 l 0,-0.130755 1.951,0 q 0.60904,0 1.01507,0.154841 0.77077,0.292478 0.77077,1.077007 0,0.526461 -0.34409,0.808616 -0.34066,0.282155 -0.92905,0.371619 l 1.45207,1.785837 q 0.13419,0.165164 0.26839,0.240864 0.13419,0.0757 0.34409,0.09635 l 0,0.127314 -1.1355,0 -1.67917,-2.167779 -0.39227,0.0172 0,1.38669 q 0,0.392264 0.11699,0.498933 0.12044,0.103227 0.51958,0.137637 l 0,0.127314 -1.95788,0 0,-0.127314 z" id="path5154"/></g><g transform="scale(1,-1)" style="font-variant:normal;font-weight:normal;font-size:7.04699993px;font-family:Times;-inkscape-font-specification:Times-Roman;writing-mode:lr-tb;fill:#000000;fill-opacity:1;fill-rule:nonzero;stroke:none" id="text1440"><path d="m 106.72065,-31.831314 q 0.43012,-0.03097 0.55743,-0.127314 0.12731,-0.09979 0.12731,-0.509256 l 0,-3.134676 q 0,-0.388824 -0.12731,-0.498934 -0.12731,-0.11355 -0.55743,-0.134195 l 0,-0.130755 2.0852,0 0,0.130755 q -0.43012,0.02065 -0.55743,0.134195 -0.12731,0.11011 -0.12731,0.498934 l 0,3.134676 q 0,0.409469 0.12731,0.509256 0.12731,0.09634 0.55743,0.127314 l 0,0.127314 -2.0852,0 0,-0.127314 z m 1.0426,-4.53513 0,0 z" id="path5151"/></g><g transform="scale(1,-1)" style="font-variant:normal;font-weight:normal;font-size:7.04699993px;font-family:Times;-inkscape-font-specification:Times-Roman;writing-mode:lr-tb;fill:#000000;fill-opacity:1;fill-rule:nonzero;stroke:none" id="text1444"><path d="m 109.4065,-33.121659 q 0.17893,0.474847 0.41979,0.757002 0.4198,0.492052 1.0426,0.492052 0.33721,0 0.58152,-0.213337 0.24774,-0.213337 0.24774,-0.595279 0,-0.344092 -0.24774,-0.59872 -0.16173,-0.161723 -0.6813,-0.485169 l -0.60216,-0.37506 q -0.27184,-0.172046 -0.43356,-0.347533 -0.29936,-0.333769 -0.29936,-0.736357 0,-0.533342 0.35441,-0.887756 0.35442,-0.354415 0.93937,-0.354415 0.24087,0 0.57808,0.120432 0.34065,0.116991 0.38882,0.116991 0.13076,0 0.17893,-0.06194 0.0516,-0.06194 0.0791,-0.175487 l 0.14452,0 0.15484,1.50024 -0.1686,0 q -0.17205,-0.677861 -0.55399,-0.946252 -0.3785,-0.268392 -0.75012,-0.268392 -0.28904,0 -0.50582,0.172046 -0.21333,0.168605 -0.21333,0.471406 0,0.271832 0.16516,0.464524 0.16516,0.196132 0.5127,0.409469 l 0.61936,0.381942 q 0.58152,0.357855 0.81894,0.657215 0.23398,0.302801 0.23398,0.715711 0,0.553988 -0.41979,0.925607 -0.41635,0.371619 -1.06668,0.371619 -0.32689,0 -0.68475,-0.123873 -0.35441,-0.123873 -0.40602,-0.123873 -0.12388,0 -0.16861,0.0757 -0.0413,0.0757 -0.055,0.161724 l -0.15484,0 -0.2099,-1.500241 0.16172,0 z m 1.50712,-3.344572 0,0 z" id="path5148"/></g></g><g transform="matrix(4.4535371,0,0,4.4535371,-143.71045,-93.653176)" id="g5162"><g transform="scale(1,-1)" style="font-variant:normal;font-weight:normal;font-size:7.04699993px;font-family:Times;-inkscape-font-specification:Times-Roman;writing-mode:lr-tb;fill:#000000;fill-opacity:1;fill-rule:nonzero;stroke:none" id="text1448"><path d="m 68.621854,-27.909344 0,0.130755 q -0.264951,0.0034 -0.361297,0.03441 -0.168605,0.05505 -0.168605,0.223659 0,0.08602 0.0585,0.240865 0.06194,0.154841 0.227101,0.519578 l 1.101093,2.453375 1.001307,-2.656389 q 0.06538,-0.175487 0.09979,-0.295919 0.03441,-0.120432 0.03441,-0.196132 0,-0.203014 -0.175487,-0.275274 -0.103227,-0.04129 -0.34065,-0.04817 l 0,-0.130755 1.441744,0 0,0.120432 q -0.223659,0.03097 -0.330328,0.120432 -0.161723,0.134196 -0.320005,0.540224 l -1.558736,3.963937 -0.106669,0 -1.737663,-3.874473 q -0.220219,-0.492051 -0.354415,-0.612484 -0.130755,-0.120432 -0.385382,-0.137636 l 0,-0.120432 1.8753,0 z" id="path5145"/></g><g transform="scale(1,-1)" style="font-variant:normal;font-weight:normal;font-size:7.04699993px;font-family:Times;-inkscape-font-specification:Times-Roman;writing-mode:lr-tb;fill:#000000;fill-opacity:1;fill-rule:nonzero;stroke:none" id="text1452"><path d="m 73.782809,-25.056823 -0.815498,-1.940678 -0.805175,1.940678 1.620673,0 z m -3.041772,1.809922 0,-0.127314 q 0.271833,-0.03097 0.406029,-0.206455 0.137636,-0.175486 0.467964,-0.953134 l 1.469272,-3.458122 0.137637,0 1.754868,3.994905 q 0.175487,0.399147 0.278715,0.495493 0.106668,0.0929 0.354414,0.127313 l 0,0.127314 -1.792718,0 0,-0.127314 q 0.309683,-0.02753 0.399146,-0.06538 0.08946,-0.04129 0.08946,-0.196132 0,-0.05161 -0.03441,-0.182369 -0.03441,-0.130755 -0.09635,-0.275273 l -0.292478,-0.677861 -1.844332,0 q -0.275273,0.691624 -0.330328,0.846466 -0.05161,0.1514 -0.05161,0.240864 0,0.178928 0.144519,0.247746 0.08946,0.04129 0.33721,0.06194 l 0,0.127314 -1.397013,0 z m 2.412084,-4.745025 0,0 z" id="path5142"/></g><g transform="scale(1,-1)" style="font-variant:normal;font-weight:normal;font-size:7.04699993px;font-family:Times;-inkscape-font-specification:Times-Roman;writing-mode:lr-tb;fill:#000000;fill-opacity:1;fill-rule:nonzero;stroke:none" id="text1456"><path d="m 75.628709,-23.374215 q 0.388824,-0.04129 0.502374,-0.137636 0.116992,-0.09979 0.116992,-0.498933 l 0,-3.134677 q 0,-0.37506 -0.113551,-0.48861 -0.11355,-0.116991 -0.505815,-0.144518 l 0,-0.130755 1.992292,0 0,0.130755 q -0.388824,0.02065 -0.52302,0.127313 -0.130755,0.106669 -0.130755,0.457643 l 0,3.385863 q 0,0.116991 0.03785,0.185809 0.04129,0.06538 0.175487,0.08258 0.07914,0.01032 0.165164,0.01376 0.08946,0.0034 0.330328,0.0034 0.939371,0 1.269699,-0.154841 0.330328,-0.154842 0.640011,-0.791411 l 0.178928,0 -0.344092,1.221525 -3.791892,0 0,-0.127314 z" id="path5139"/></g><g transform="scale(1,-1)" style="font-variant:normal;font-weight:normal;font-size:7.04699993px;font-family:Times;-inkscape-font-specification:Times-Roman;writing-mode:lr-tb;fill:#000000;fill-opacity:1;fill-rule:nonzero;stroke:none" id="text1460"><path d="m 79.757539,-23.374215 q 0.388824,-0.04129 0.502374,-0.137636 0.116991,-0.09979 0.116991,-0.498933 l 0,-3.134677 q 0,-0.37506 -0.11355,-0.48861 -0.11355,-0.116991 -0.505815,-0.144518 l 0,-0.130755 1.992292,0 0,0.130755 q -0.388824,0.02065 -0.52302,0.127313 -0.130755,0.106669 -0.130755,0.457643 l 0,3.385863 q 0,0.116991 0.03785,0.185809 0.04129,0.06538 0.175487,0.08258 0.07914,0.01032 0.165164,0.01376 0.08946,0.0034 0.330328,0.0034 0.939371,0 1.269699,-0.154841 0.330328,-0.154842 0.640011,-0.791411 l 0.178928,0 -0.344092,1.221525 -3.791892,0 0,-0.127314 z" id="path5136"/></g><g transform="scale(1,-1)" style="font-variant:normal;font-weight:normal;font-size:7.04699993px;font-family:Times;-inkscape-font-specification:Times-Roman;writing-mode:lr-tb;fill:#000000;fill-opacity:1;fill-rule:nonzero;stroke:none" id="text1464"><path d="m 83.886384,-23.374215 q 0.388824,-0.04129 0.502374,-0.137636 0.116992,-0.09979 0.116992,-0.498933 l 0,-3.134677 q 0,-0.37506 -0.113551,-0.48861 -0.11355,-0.116991 -0.505815,-0.144518 l 0,-0.130755 3.743719,0 0.02409,1.01163 -0.178928,0 q -0.08946,-0.467965 -0.268392,-0.605602 -0.178927,-0.137637 -0.798293,-0.137637 l -0.956575,0 q -0.154841,0 -0.192691,0.05161 -0.03441,0.04817 -0.03441,0.18581 l 0,1.572499 1.083889,0 q 0.45076,0 0.574633,-0.134196 0.123873,-0.134196 0.199573,-0.543665 l 0.165164,0 0,1.630995 -0.165164,0 q -0.07914,-0.409469 -0.203014,-0.540224 -0.123873,-0.134196 -0.571192,-0.134196 l -1.083889,0 0,1.744546 q 0,0.209896 0.130754,0.247746 0.134196,0.03785 0.794852,0.03785 0.715711,0 1.056362,-0.154841 0.340651,-0.158283 0.612484,-0.760443 l 0.196132,0 -0.320005,1.190557 -3.809097,0 0,-0.127314 z m 2.078315,-4.535129 0,0 z m 1.08733,-1.328195 q 0,0.09979 -0.05506,0.165164 -0.05505,0.06538 -0.161723,0.134196 l -1.083889,0.684743 -0.285596,0 1.035716,-1.042598 q 0.05506,-0.05506 0.137637,-0.113551 0.08258,-0.0585 0.175487,-0.0585 0.08946,0 0.161723,0.06538 0.0757,0.06194 0.0757,0.165164 z m -1.08733,1.328195 0,0 z" id="path5133"/></g><g transform="scale(1,-1)" style="font-variant:normal;font-weight:normal;font-size:7.04699993px;font-family:Times;-inkscape-font-specification:Times-Roman;writing-mode:lr-tb;fill:#000000;fill-opacity:1;fill-rule:nonzero;stroke:none" id="text1468"><path d="m 88.015222,-23.374215 q 0.388824,-0.04129 0.502374,-0.137636 0.116991,-0.09979 0.116991,-0.498933 l 0,-3.134677 q 0,-0.37506 -0.11355,-0.48861 -0.11355,-0.116991 -0.505815,-0.144518 l 0,-0.130755 3.743719,0 0.02409,1.01163 -0.178928,0 q -0.08946,-0.467965 -0.268391,-0.605602 -0.178928,-0.137637 -0.798293,-0.137637 l -0.956575,0 q -0.154842,0 -0.192692,0.05161 -0.03441,0.04817 -0.03441,0.18581 l 0,1.572499 1.083889,0 q 0.450761,0 0.574634,-0.134196 0.123873,-0.134196 0.199573,-0.543665 l 0.165164,0 0,1.630995 -0.165164,0 q -0.07914,-0.409469 -0.203014,-0.540224 -0.123873,-0.134196 -0.571193,-0.134196 l -1.083889,0 0,1.744546 q 0,0.209896 0.130755,0.247746 0.134196,0.03785 0.794852,0.03785 0.715711,0 1.056362,-0.154841 0.340651,-0.158283 0.612483,-0.760443 l 0.196133,0 -0.320006,1.190557 -3.809096,0 0,-0.127314 z m 2.078314,-4.535129 0,0 z" id="path5130"/></g><g transform="scale(1,-1)" style="font-variant:normal;font-weight:normal;font-size:7.04699993px;font-family:Times;-inkscape-font-specification:Times-Roman;writing-mode:lr-tb;fill:#000000;fill-opacity:1;fill-rule:nonzero;stroke:none" id="text1472"><path d="m 95.275294,-23.790566 q 0,0.172046 0.08258,0.227101 0.08602,0.05505 0.350974,0.05505 0.82582,0 1.359162,-0.326888 0.818939,-0.502374 0.818939,-1.717018 0,-1.083889 -0.67442,-1.630995 -0.578074,-0.467965 -1.531208,-0.467965 -0.237424,0 -0.323447,0.05161 -0.08258,0.05161 -0.08258,0.227101 l 0,3.581995 z m -1.335076,0.416351 q 0.385383,-0.04129 0.502374,-0.137636 0.116991,-0.09979 0.116991,-0.498933 l 0,-3.134677 q 0,-0.385382 -0.11355,-0.495492 -0.11355,-0.110109 -0.505815,-0.137636 l 0,-0.130755 1.899387,0 q 0.960016,0 1.624113,0.316564 1.197439,0.567752 1.197439,2.030142 0,0.52646 -0.216777,1.001307 -0.213337,0.474846 -0.646893,0.801734 -0.275273,0.206455 -0.571192,0.313123 -0.540224,0.199573 -1.328195,0.199573 l -1.957882,0 0,-0.127314 z" id="path5127"/></g><g transform="scale(1,-1)" style="font-variant:normal;font-weight:normal;font-size:7.04699993px;font-family:Times;-inkscape-font-specification:Times-Roman;writing-mode:lr-tb;fill:#000000;fill-opacity:1;fill-rule:nonzero;stroke:none" id="text1476"><path d="m 98.81756,-23.374215 q 0.388823,-0.04129 0.502374,-0.137636 0.116991,-0.09979 0.116991,-0.498933 l 0,-3.134677 q 0,-0.37506 -0.11355,-0.48861 -0.113551,-0.116991 -0.505815,-0.144518 l 0,-0.130755 3.74372,0 0.0241,1.01163 -0.17892,0 q -0.0895,-0.467965 -0.26839,-0.605602 -0.17893,-0.137637 -0.7983,-0.137637 l -0.95657,0 q -0.15484,0 -0.19269,0.05161 -0.0344,0.04817 -0.0344,0.18581 l 0,1.572499 1.08389,0 q 0.45076,0 0.57463,-0.134196 0.12387,-0.134196 0.19957,-0.543665 l 0.16517,0 0,1.630995 -0.16517,0 q -0.0791,-0.409469 -0.20301,-0.540224 -0.12387,-0.134196 -0.57119,-0.134196 l -1.08389,0 0,1.744546 q 0,0.209896 0.13075,0.247746 0.1342,0.03785 0.79485,0.03785 0.71571,0 1.05637,-0.154841 0.34065,-0.158283 0.61248,-0.760443 l 0.19613,0 -0.32,1.190557 -3.8091,0 0,-0.127314 z m 2.07831,-4.535129 0,0 z" id="path5124"/></g><g transform="scale(1,-1)" style="font-variant:normal;font-weight:normal;font-size:7.04699993px;font-family:Times;-inkscape-font-specification:Times-Roman;writing-mode:lr-tb;fill:#000000;fill-opacity:1;fill-rule:nonzero;stroke:none" id="text1480"><path d="m 104.70814,-23.374215 q 0.38882,-0.04129 0.50237,-0.137636 0.11699,-0.09979 0.11699,-0.498933 l 0,-3.134677 q 0,-0.37506 -0.11355,-0.48861 -0.11355,-0.116991 -0.50581,-0.144518 l 0,-0.130755 1.99229,0 0,0.130755 q -0.38882,0.02065 -0.52302,0.127313 -0.13075,0.106669 -0.13075,0.457643 l 0,3.385863 q 0,0.116991 0.0378,0.185809 0.0413,0.06538 0.17548,0.08258 0.0791,0.01032 0.16517,0.01376 0.0895,0.0034 0.33033,0.0034 0.93937,0 1.26969,-0.154841 0.33033,-0.154842 0.64001,-0.791411 l 0.17893,0 -0.34409,1.221525 -3.79189,0 0,-0.127314 z" id="path5121"/></g><g transform="scale(1,-1)" style="font-variant:normal;font-weight:normal;font-size:7.04699993px;font-family:Times;-inkscape-font-specification:Times-Roman;writing-mode:lr-tb;fill:#000000;fill-opacity:1;fill-rule:nonzero;stroke:none" id="text1484"><path d="m 111.9028,-25.056823 -0.8155,-1.940678 -0.80518,1.940678 1.62068,0 z m -3.04178,1.809922 0,-0.127314 q 0.27184,-0.03097 0.40603,-0.206455 0.13764,-0.175486 0.46797,-0.953134 l 1.46927,-3.458122 0.13764,0 1.75486,3.994905 q 0.17549,0.399147 0.27872,0.495493 0.10667,0.0929 0.35441,0.127313 l 0,0.127314 -1.79271,0 0,-0.127314 q 0.30968,-0.02753 0.39914,-0.06538 0.0895,-0.04129 0.0895,-0.196132 0,-0.05161 -0.0344,-0.182369 -0.0344,-0.130755 -0.0963,-0.275273 l -0.29248,-0.677861 -1.84433,0 q -0.27527,0.691624 -0.33033,0.846466 -0.0516,0.1514 -0.0516,0.240864 0,0.178928 0.14452,0.247746 0.0895,0.04129 0.33721,0.06194 l 0,0.127314 -1.39702,0 z m 2.41209,-4.745025 0,0 z" id="path5118"/></g><g transform="scale(1,-1)" style="font-variant:normal;font-weight:normal;font-size:7.04699993px;font-family:Times;-inkscape-font-specification:Times-Roman;writing-mode:lr-tb;fill:#000000;fill-opacity:1;fill-rule:nonzero;stroke:none" id="text1488"><path d="m 115.12434,-23.374215 q 0.43699,-0.04473 0.56087,-0.196132 0.12387,-0.154841 0.12387,-0.71227 l 0,-2.862844 q 0,-0.381941 -0.12043,-0.495492 -0.12043,-0.116991 -0.54711,-0.137636 l 0,-0.130755 1.39357,0 1.631,3.554468 1.55873,-3.554468 1.4039,0 0,0.130755 q -0.39227,0.02753 -0.50582,0.144518 -0.11355,0.11355 -0.11355,0.48861 l 0,3.134677 q 0,0.385382 0.11355,0.495492 0.11355,0.106668 0.50582,0.141077 l 0,0.127314 -1.97509,0 0,-0.127314 q 0.42668,-0.03441 0.5299,-0.1514 0.10667,-0.120432 0.10667,-0.567751 l 0,-3.165645 -1.80304,4.01211 -0.0963,0 -1.77208,-3.846946 0,2.81123 q 0,0.578074 0.16861,0.753561 0.11011,0.11355 0.49205,0.154841 l 0,0.127314 -1.65508,0 0,-0.127314 z" id="path5115"/></g><g transform="scale(1,-1)" style="font-variant:normal;font-weight:normal;font-size:7.04699993px;font-family:Times;-inkscape-font-specification:Times-Roman;writing-mode:lr-tb;fill:#000000;fill-opacity:1;fill-rule:nonzero;stroke:none" id="text1492"><path d="m 124.2788,-25.056823 -0.8155,-1.940678 -0.80518,1.940678 1.62068,0 z m -3.04178,1.809922 0,-0.127314 q 0.27184,-0.03097 0.40603,-0.206455 0.13764,-0.175486 0.46797,-0.953134 l 1.46927,-3.458122 0.13764,0 1.75486,3.994905 q 0.17549,0.399147 0.27872,0.495493 0.10667,0.0929 0.35441,0.127313 l 0,0.127314 -1.79272,0 0,-0.127314 q 0.30969,-0.02753 0.39915,-0.06538 0.0895,-0.04129 0.0895,-0.196132 0,-0.05161 -0.0344,-0.182369 -0.0344,-0.130755 -0.0964,-0.275273 l -0.29248,-0.677861 -1.84433,0 q -0.27527,0.691624 -0.33033,0.846466 -0.0516,0.1514 -0.0516,0.240864 0,0.178928 0.14452,0.247746 0.0895,0.04129 0.33721,0.06194 l 0,0.127314 -1.39702,0 z m 2.41209,-4.745025 0,0 z" id="path5112"/></g><g transform="scale(1,-1)" style="font-variant:normal;font-weight:normal;font-size:7.04699993px;font-family:Times;-inkscape-font-specification:Times-Roman;writing-mode:lr-tb;fill:#000000;fill-opacity:1;fill-rule:nonzero;stroke:none" id="text1496"><path d="m 127.44525,-25.658984 q 0.76045,-0.02753 1.08733,-0.158282 0.56087,-0.230542 0.56087,-0.867112 0,-0.612483 -0.50237,-0.836143 -0.26839,-0.120432 -0.71227,-0.120432 -0.29936,0 -0.36818,0.04473 -0.0654,0.04129 -0.0654,0.199573 l 0,1.737664 z m -1.32131,2.284769 q 0.40603,-0.03785 0.50582,-0.158282 0.0998,-0.120432 0.0998,-0.560869 l 0,-3.052095 q 0,-0.371619 -0.11355,-0.485169 -0.11011,-0.116991 -0.49205,-0.147959 l 0,-0.130755 1.951,0 q 0.60904,0 1.01507,0.154841 0.77077,0.292478 0.77077,1.077007 0,0.526461 -0.34409,0.808616 -0.34065,0.282155 -0.92905,0.371619 l 1.45207,1.785837 q 0.13419,0.165164 0.26839,0.240864 0.13419,0.0757 0.34409,0.09634 l 0,0.127314 -1.1355,0 -1.67917,-2.167778 -0.39227,0.01721 0,1.38669 q 0,0.392264 0.11699,0.498933 0.12044,0.103227 0.51958,0.137636 l 0,0.127314 -1.95788,0 0,-0.127314 z" id="path5109"/></g><g transform="scale(1,-1)" style="font-variant:normal;font-weight:normal;font-size:7.04699993px;font-family:Times;-inkscape-font-specification:Times-Roman;writing-mode:lr-tb;fill:#000000;fill-opacity:1;fill-rule:nonzero;stroke:none" id="text1500"><path d="m 130.64814,-23.374215 q 0.437,-0.04473 0.56087,-0.196132 0.12387,-0.154841 0.12387,-0.71227 l 0,-3.107149 -0.0963,-0.11355 q -0.15484,-0.182369 -0.26495,-0.22366 -0.10667,-0.04473 -0.32345,-0.05161 l 0,-0.130755 1.20776,0 2.71489,3.392745 0,-2.357029 q 0,-0.581515 -0.17205,-0.757002 -0.11355,-0.11355 -0.50237,-0.147959 l 0,-0.130755 1.65508,0 0,0.130755 q -0.40259,0.04129 -0.53678,0.196132 -0.1342,0.154841 -0.1342,0.708829 l 0,3.709309 -0.12043,0 -3.11747,-3.86415 0,2.745852 q 0,0.578074 0.1686,0.753561 0.11011,0.11355 0.49205,0.154841 l 0,0.127314 -1.65508,0 0,-0.127314 z m 2.47058,-4.535129 0,0 z" id="path5106"/></g><g transform="scale(1,-1)" style="font-variant:normal;font-weight:normal;font-size:7.04699993px;font-family:Times;-inkscape-font-specification:Times-Roman;writing-mode:lr-tb;fill:#000000;fill-opacity:1;fill-rule:nonzero;stroke:none" id="text1504"><path d="m 135.55995,-23.374215 q 0.38882,-0.04129 0.50237,-0.137636 0.11699,-0.09979 0.11699,-0.498933 l 0,-3.134677 q 0,-0.37506 -0.11355,-0.48861 -0.11355,-0.116991 -0.50581,-0.144518 l 0,-0.130755 3.74371,0 0.0241,1.01163 -0.17893,0 q -0.0895,-0.467965 -0.26839,-0.605602 -0.17893,-0.137637 -0.79829,-0.137637 l -0.95658,0 q -0.15484,0 -0.19269,0.05161 -0.0344,0.04817 -0.0344,0.18581 l 0,1.572499 1.08389,0 q 0.45076,0 0.57464,-0.134196 0.12387,-0.134196 0.19957,-0.543665 l 0.16516,0 0,1.630995 -0.16516,0 q -0.0791,-0.409469 -0.20302,-0.540224 -0.12387,-0.134196 -0.57119,-0.134196 l -1.08389,0 0,1.744546 q 0,0.209896 0.13076,0.247746 0.13419,0.03785 0.79485,0.03785 0.71571,0 1.05636,-0.154841 0.34065,-0.158283 0.61248,-0.760443 l 0.19614,0 -0.32001,1.190557 -3.80909,0 0,-0.127314 z m 2.07831,-4.535129 0,0 z" id="path5103"/></g></g><g transform="matrix(4.4535371,0,0,4.4535371,-143.71045,-93.653176)" id="g1512" clip-path="url(#clipPath1514)"><path d="m 32.6207,54.5795 32.7275,0 0,-11.9913 -10.8319,0 0.0083,-21.2 -11.0389,0 0,21.2 -10.865,-0.0082" style="fill:#00a990;fill-opacity:1;fill-rule:nonzero;stroke:none" id="path1518"/><path d="m 57.5307,52.327 c 1.1263,0 -6.4925,1.1925 -9.54,-3.5775 -3.0475,-4.77 -3.7265,-11.0969 -0.2153,-14.1444 0,0 -0.8612,-2.7524 -0.8612,-2.9315 0,-0.265 0.1987,-0.7288 0.1987,-0.7288 l 0.4141,0.0331 c 0,0 1.1759,4.2566 1.3747,4.5879 0,0 -1.4849,2.1665 -1.8716,3.8424 -0.3975,1.7225 0.0994,4.1738 0.0994,4.7038 0,0.53 -0.4307,-2.5838 2.4843,-6.4925 l 0.6957,1.7225 c 0,0 -2.2938,4.0632 -2.0538,5.3662 0.2319,1.2588 0.3975,1.8882 1.3581,3.3126 0,0 -0.0776,-2.8009 0.1325,-3.5444 0.4307,-1.5238 1.4244,-3.0807 1.4244,-3.0807 l 0.7288,1.59 c 0,0 -0.7619,1.6563 -0.8944,2.4513 -0.1325,0.795 -0.6059,2.5027 -0.2981,3.1634 0.5631,1.2091 1.7887,1.6728 1.7887,1.6728 0,0 -0.2595,-1.8434 -0.1987,-2.4512 0.0662,-0.6625 0.7287,-2.7825 0.7287,-2.7825 0,0 0.5963,1.1925 0.8613,1.7225 0,0 -0.1657,1.3913 -0.1988,1.8716 -0.0319,0.4626 -0.0898,1.6096 0.1325,1.9709 0.1325,0.2153 1.325,0.3975 1.325,0.3975 0,0 -0.1325,-2.5175 -0.1159,-2.6666" style="fill:#ffffff;fill-opacity:1;fill-rule:nonzero;stroke:none" id="path1520"/><path d="m 56.4542,49.4617 2.7659,0.0165 0.3312,-1.4574 -3.9087,0" style="fill:#ffffff;fill-opacity:1;fill-rule:nonzero;stroke:none" id="path1522"/><path d="m 54.4832,46.0332 5.416,0 0,-1.6231 -6.2772,0" style="fill:#ffffff;fill-opacity:1;fill-rule:nonzero;stroke:none" id="path1524"/><path d="m 52.5951,42.5882 2.0869,0 0,-1.5237 -2.766,0 c 0,0 0.4141,1.1263 0.6791,1.5237" style="fill:#ffffff;fill-opacity:1;fill-rule:nonzero;stroke:none" id="path1526"/><path d="m 50.972,39.0273 3.8093,-0.0166 0,-1.6065 -4.389,0 c 0,0 0.4472,1.1594 0.5797,1.6231" style="fill:#ffffff;fill-opacity:1;fill-rule:nonzero;stroke:none" id="path1528"/><path d="m 49.6801,35.4498 4.5712,-0.0165 c 0,0 -0.9606,-1.2257 -2.1531,-1.5569 l -2.9647,0.0165" style="fill:#ffffff;fill-opacity:1;fill-rule:nonzero;stroke:none" id="path1530"/><path d="m 47.4276,28.7254 0,-1.2918 c 0,0 0.6128,-0.5632 1.59,-0.5632 1.06,0 1.1097,0.5466 2.12,0.5466 1.1097,0 1.0931,-0.5466 2.0041,-0.5466 0.8943,0 1.6728,0.5466 1.6728,0.5466 l 0,1.3084 c 0,0 -0.7453,-0.7122 -1.6728,-0.7122 -0.8116,0 -0.9441,0.7122 -2.0041,0.7122 -1.1759,0 -1.2588,-0.7122 -2.12,-0.7122 -0.8944,0 -1.6066,0.7122 -1.59,0.7122" style="fill:#ffffff;fill-opacity:1;fill-rule:nonzero;stroke:none" id="path1532"/><path d="m 47.4359,25.9264 0,-1.2919 c 0,0 0.6128,-0.5631 1.59,-0.5631 1.06,0 1.1097,0.5465 2.12,0.5465 1.1097,0 1.0931,-0.5465 2.004,-0.5465 0.8944,0 1.6729,0.5465 1.6729,0.5465 l 0,1.3085 c 0,0 -0.7454,-0.7122 -1.6729,-0.7122 -0.8115,0 -0.944,0.7122 -2.004,0.7122 -1.176,0 -1.2588,-0.7122 -2.12,-0.7122 -0.8944,0 -1.6066,0.7122 -1.59,0.7122" style="fill:#ffffff;fill-opacity:1;fill-rule:nonzero;stroke:none" id="path1534"/></g></g></svg>