<?xml version="1.0" encoding="UTF-8" standalone="no"?>
<!-- Created with Inkscape (http://www.inkscape.org/) -->

<svg
   xmlns:dc="http://purl.org/dc/elements/1.1/"
   xmlns:cc="http://creativecommons.org/ns#"
   xmlns:rdf="http://www.w3.org/1999/02/22-rdf-syntax-ns#"
   xmlns:svg="http://www.w3.org/2000/svg"
   xmlns="http://www.w3.org/2000/svg"
   xmlns:xlink="http://www.w3.org/1999/xlink"
   xmlns:sodipodi="http://sodipodi.sourceforge.net/DTD/sodipodi-0.dtd"
   xmlns:inkscape="http://www.inkscape.org/namespaces/inkscape"
   width="64"
   height="64"
   viewBox="0 0 16.933333 16.933334"
   version="1.1"
   id="svg12571"
   inkscape:version="0.92.3 (2405546, 2018-03-11)"
   sodipodi:docname="icon.svg">
  <defs
     id="defs12565">
    <clipPath
       id="clipPath1514"
       clipPathUnits="userSpaceOnUse">
      <path
         inkscape:connector-curvature="0"
         id="path1516"
         d="m 32.6281,20.3328 h 32.875 v 35.394 h -32.875 z" />
    </clipPath>
    <linearGradient
       inkscape:collect="always"
       xlink:href="#linearGradient12467"
       id="linearGradient12469"
       x1="30.650059"
       y1="2.40715"
       x2="30.650059"
       y2="14.645212"
       gradientUnits="userSpaceOnUse"
       spreadMethod="reflect"
       gradientTransform="translate(-20.824614,2.0473567)" />
    <linearGradient
       inkscape:collect="always"
       id="linearGradient12467">
      <stop
         style="stop-color:#2c2ca0;stop-opacity:1;"
         offset="0"
         id="stop12463" />
      <stop
         style="stop-color:#2c2ca0;stop-opacity:0;"
         offset="1"
         id="stop12465" />
    </linearGradient>
    <linearGradient
       inkscape:collect="always"
       xlink:href="#linearGradient12514"
       id="linearGradient12516"
       x1="-12.231587"
       y1="8.625701"
       x2="-12.231587"
       y2="19.099718"
       gradientUnits="userSpaceOnUse"
       spreadMethod="reflect"
       gradientTransform="translate(21.726276,-2.7379062)" />
    <linearGradient
       inkscape:collect="always"
       id="linearGradient12514">
      <stop
         style="stop-color:#4400aa;stop-opacity:1"
         offset="0"
         id="stop12510" />
      <stop
         style="stop-color:#4400aa;stop-opacity:0;"
         offset="1"
         id="stop12512" />
    </linearGradient>
  </defs>
  <sodipodi:namedview
     id="base"
     pagecolor="#ffffff"
     bordercolor="#666666"
     borderopacity="1.0"
     inkscape:pageopacity="0.0"
     inkscape:pageshadow="2"
     inkscape:zoom="7.9195959"
     inkscape:cx="8.9754475"
     inkscape:cy="20.289254"
     inkscape:document-units="mm"
     inkscape:current-layer="layer1"
     showgrid="false"
     units="px"
     inkscape:window-width="1920"
     inkscape:window-height="1017"
     inkscape:window-x="-8"
     inkscape:window-y="-8"
     inkscape:window-maximized="1" />
  <metadata
     id="metadata12568">
    <rdf:RDF>
      <cc:Work
         rdf:about="">
        <dc:format>image/svg+xml</dc:format>
        <dc:type
           rdf:resource="http://purl.org/dc/dcmitype/StillImage" />
        <dc:title></dc:title>
      </cc:Work>
    </rdf:RDF>
  </metadata>
  <g
     inkscape:label="Calque 1"
     inkscape:groupmode="layer"
     id="layer1"
     transform="translate(0,-280.06665)">
    <g
       id="g13374"
       transform="matrix(0.29158348,0,0,0.29224993,-11.524072,263.91025)">
      <g
         clip-path="url(#clipPath1514)"
         id="g1512"
         transform="matrix(1.4729146,0,0,-1.4729146,1.3437632,140.20043)">
        <path
           id="path1518"
           style="fill:#00a990;fill-opacity:1;fill-rule:nonzero;stroke:none"
           d="M 32.6207,54.5795 H 65.3482 V 42.5882 H 54.5163 l 0.0083,-21.2 H 43.4857 v 21.2 L 32.6207,42.58"
           inkscape:connector-curvature="0" />
        <path
           id="path1520"
           style="fill:#ffffff;fill-opacity:1;fill-rule:nonzero;stroke:none"
           d="m 57.5307,52.327 c 1.1263,0 -6.4925,1.1925 -9.54,-3.5775 -3.0475,-4.77 -3.7265,-11.0969 -0.2153,-14.1444 0,0 -0.8612,-2.7524 -0.8612,-2.9315 0,-0.265 0.1987,-0.7288 0.1987,-0.7288 l 0.4141,0.0331 c 0,0 1.1759,4.2566 1.3747,4.5879 0,0 -1.4849,2.1665 -1.8716,3.8424 -0.3975,1.7225 0.0994,4.1738 0.0994,4.7038 0,0.53 -0.4307,-2.5838 2.4843,-6.4925 l 0.6957,1.7225 c 0,0 -2.2938,4.0632 -2.0538,5.3662 0.2319,1.2588 0.3975,1.8882 1.3581,3.3126 0,0 -0.0776,-2.8009 0.1325,-3.5444 0.4307,-1.5238 1.4244,-3.0807 1.4244,-3.0807 l 0.7288,1.59 c 0,0 -0.7619,1.6563 -0.8944,2.4513 -0.1325,0.795 -0.6059,2.5027 -0.2981,3.1634 0.5631,1.2091 1.7887,1.6728 1.7887,1.6728 0,0 -0.2595,-1.8434 -0.1987,-2.4512 0.0662,-0.6625 0.7287,-2.7825 0.7287,-2.7825 0,0 0.5963,1.1925 0.8613,1.7225 0,0 -0.1657,1.3913 -0.1988,1.8716 -0.0319,0.4626 -0.0898,1.6096 0.1325,1.9709 0.1325,0.2153 1.325,0.3975 1.325,0.3975 0,0 -0.1325,-2.5175 -0.1159,-2.6666"
           inkscape:connector-curvature="0" />
        <path
           id="path1522"
           style="fill:#ffffff;fill-opacity:1;fill-rule:nonzero;stroke:none"
           d="m 56.4542,49.4617 2.7659,0.0165 0.3312,-1.4574 h -3.9087"
           inkscape:connector-curvature="0" />
        <path
           id="path1524"
           style="fill:#ffffff;fill-opacity:1;fill-rule:nonzero;stroke:none"
           d="m 54.4832,46.0332 h 5.416 V 44.4101 H 53.622"
           inkscape:connector-curvature="0" />
        <path
           id="path1526"
           style="fill:#ffffff;fill-opacity:1;fill-rule:nonzero;stroke:none"
           d="m 52.5951,42.5882 h 2.0869 v -1.5237 h -2.766 c 0,0 0.4141,1.1263 0.6791,1.5237"
           inkscape:connector-curvature="0" />
        <path
           id="path1528"
           style="fill:#ffffff;fill-opacity:1;fill-rule:nonzero;stroke:none"
           d="m 50.972,39.0273 3.8093,-0.0166 v -1.6065 h -4.389 c 0,0 0.4472,1.1594 0.5797,1.6231"
           inkscape:connector-curvature="0" />
        <path
           id="path1530"
           style="fill:#ffffff;fill-opacity:1;fill-rule:nonzero;stroke:none"
           d="m 49.6801,35.4498 4.5712,-0.0165 c 0,0 -0.9606,-1.2257 -2.1531,-1.5569 l -2.9647,0.0165"
           inkscape:connector-curvature="0" />
        <path
           id="path1532"
           style="fill:#ffffff;fill-opacity:1;fill-rule:nonzero;stroke:none"
           d="m 47.4276,28.7254 v -1.2918 c 0,0 0.6128,-0.5632 1.59,-0.5632 1.06,0 1.1097,0.5466 2.12,0.5466 1.1097,0 1.0931,-0.5466 2.0041,-0.5466 0.8943,0 1.6728,0.5466 1.6728,0.5466 v 1.3084 c 0,0 -0.7453,-0.7122 -1.6728,-0.7122 -0.8116,0 -0.9441,0.7122 -2.0041,0.7122 -1.1759,0 -1.2588,-0.7122 -2.12,-0.7122 -0.8944,0 -1.6066,0.7122 -1.59,0.7122"
           inkscape:connector-curvature="0" />
        <path
           id="path1534"
           style="fill:#ffffff;fill-opacity:1;fill-rule:nonzero;stroke:none"
           d="m 47.4359,25.9264 v -1.2919 c 0,0 0.6128,-0.5631 1.59,-0.5631 1.06,0 1.1097,0.5465 2.12,0.5465 1.1097,0 1.0931,-0.5465 2.004,-0.5465 0.8944,0 1.6729,0.5465 1.6729,0.5465 v 1.3085 c 0,0 -0.7454,-0.7122 -1.6729,-0.7122 -0.8115,0 -0.944,0.7122 -2.004,0.7122 -1.176,0 -1.2588,-0.7122 -2.12,-0.7122 -0.8944,0 -1.6066,0.7122 -1.59,0.7122"
           inkscape:connector-curvature="0" />
      </g>
      <g
         transform="matrix(0.91293136,0,0,0.91293136,39.522375,79.613994)"
         id="g12524">
        <text
           xml:space="preserve"
           style="font-style:normal;font-variant:normal;font-weight:bold;font-stretch:normal;font-size:40px;line-height:1.25;font-family:Impact;-inkscape-font-specification:'Impact Bold';letter-spacing:0px;word-spacing:0px;fill:#00e0ff;fill-opacity:1;stroke:none"
           x="-1.640625"
           y="31.621094"
           id="text12278-0"><tspan
             sodipodi:role="line"
             id="tspan12276-4"
             x="-1.640625"
             y="31.621094"
             style="fill:#00e0ff;fill-opacity:1;stroke:none">M</tspan></text>
        <text
           xml:space="preserve"
           style="font-style:normal;font-variant:normal;font-weight:bold;font-stretch:normal;font-size:40px;line-height:1.25;font-family:Impact;-inkscape-font-specification:'Impact Bold';letter-spacing:0px;word-spacing:0px;opacity:0.82999998;fill:url(#linearGradient12469);fill-opacity:1;stroke:none"
           x="-1.640625"
           y="31.621094"
           id="text12278"><tspan
             sodipodi:role="line"
             id="tspan12276"
             x="-1.640625"
             y="31.621094"
             style="fill:url(#linearGradient12469);fill-opacity:1;stroke:none">M</tspan></text>
        <text
           xml:space="preserve"
           style="font-style:normal;font-variant:normal;font-weight:bold;font-stretch:normal;font-size:40px;line-height:1.25;font-family:Impact;-inkscape-font-specification:'Impact Bold';letter-spacing:0px;word-spacing:0px;opacity:0.675;fill:url(#linearGradient12516);fill-opacity:1;stroke:none"
           x="-1.640625"
           y="31.621094"
           id="text12278-05"><tspan
             sodipodi:role="line"
             id="tspan12276-8"
             x="-1.640625"
             y="31.621094"
             style="fill:url(#linearGradient12516);fill-opacity:1;stroke:none">M</tspan></text>
      </g>
    </g>
  </g>
</svg>
